<?xml version="1.0" encoding="utf-8"?>
<!-- Generator: Adobe Illustrator 19.0.0, SVG Export Plug-In . SVG Version: 6.00 Build 0)  -->
<svg version="1.1" id="layer" xmlns="http://www.w3.org/2000/svg" xmlns:xlink="http://www.w3.org/1999/xlink" x="0px" y="0px"
	 viewBox="-153 -46 652 652" style="enable-background:new -153 -46 652 652;" xml:space="preserve">
<g>
	<path d="M96.5,351h13.1c7.7,0,11.6,4,11.6,9.2c0,5.4-4.6,8.9-11.1,8.9h-7.3v9.3h-6.3L96.5,351 M102.9,364.8h6.1
		c3.9,0,5.8-1.9,5.8-4.6c0-3.9-2.4-4.9-6-4.9h-5.9V364.8z"/>
	<path d="M137.5,351h7.2l11,27.4h-6.5l-1.9-5.3h-12.5l-1.9,5.3h-6.5L137.5,351 M141.1,356L141.1,356l-4.7,12.5h9.2L141.1,356z"/>
	<path d="M163.3,351H177c7,0,11.1,3.5,11.1,8.2c0,6.2-5,7.6-6.6,8.1l7.3,11.1h-7.2l-6.4-10.1h-5.9v10.1h-6.2L163.3,351 M169.4,363.8
		h6.8c3.1,0,5.4-1.5,5.4-4.1c0-2.5-2-4.1-6.4-4.1h-5.8V363.8z"/>
	<rect x="197.4" y="351" width="6.2" height="27.4"/>
	<path d="M216.8,370.2c2.3,2.8,5.9,4.1,9.9,4.1c3,0,7-0.8,7-3.5c0-2.2-2.4-2.8-6.8-3.6l-3.7-0.7c-5.3-0.9-9.9-2.6-9.9-7.6
		c0-5.8,6.6-8.6,12.8-8.6c5.6,0,10.3,1.7,13.7,5.5l-5.1,3.2c-1.6-2.4-4.6-3.9-8.6-3.9c-3.6,0-6.3,1.1-6.3,3c0,2.3,3.1,2.8,6.8,3.5
		l4,0.7c4.9,0.9,9.5,2.6,9.5,7.8c0,6.7-7.6,9.1-14.4,9.1c-5.4,0-11.1-2-14.3-5.8L216.8,370.2"/>
	<path d="M336.1,185.1h-16.9l-44.4,86.4h15.3l11.1-22.2h52.2l11.4,22.2h15.2L336.1,185.1 M307,238.1l20.5-40.8l20.5,40.8H307z"/>
	<polyline points="-131.6,185.1 -131.6,271.5 -53.1,271.5 -53.1,262.2 -119.5,262.2 -119.5,185.1 -131.6,185.1 	"/>
	<polyline points="-63.2,185.1 -75.6,215.7 -66.6,215.7 -50.2,185.1 -63.2,185.1 	"/>
	<path d="M14,170c-29.7,0-58.1,22.7-58.1,54.4c0,31.6,24.9,54.2,58.1,54.2c39.7,0,59.6-28.2,59.6-54.2C73.6,196.8,52.8,170,14,170
		 M14,267.8c-22.5,0-43.4-18-43.4-43.4c0-28,24.9-43.6,43.4-43.5c31.2,0.2,45.6,24.9,45.6,43.5C59.6,246.8,39.4,267.8,14,267.8z"/>
	<path d="M153.2,235.3c0,0,21.5-6.1,21.5-25.3c0-25.2-26.7-24.9-26.7-24.9H89.4v86.4h12.2v-36.2h35.8l26.5,36.2h15.3L153.2,235.3
		 M144.5,225h-43v-29.6l43,0c0,0,16.8-0.4,16.8,14.5C161.3,225.9,144.5,225,144.5,225z"/>
	<polyline points="389.9,185.2 389.9,271.6 468.4,271.6 468.4,262.3 402,262.3 402,185.3 389.9,185.2 	"/>
	<polyline points="196.5,185.2 196.5,271.5 273,271.5 273,262 209.6,262 209.6,232.1 257.3,232.1 257.3,222.2 209.6,222.2 
		209.6,194.6 273,194.6 273,185.1 196.5,185.2 	"/>
	<polyline points="236.2,171.1 226.4,182.3 257.6,171.1 236.2,171.1 	"/>
	<path d="M-46.1,306.1c0-3.4-3.4-4.5-8.1-4.5h-11.5v8.8h11.5C-49.5,310.5-46.1,309.5-46.1,306.1z"/>
	<path d="M-101.8,301.6h-12.5v8.7h11.8c4.4,0,7.4-1.3,7.4-4.4C-95.2,303.2-97.1,301.6-101.8,301.6z"/>
	<g>
		<path d="M247.3,300.8c-7.6,0-11.1,5-11.1,10.7c0,5.7,3.5,10.8,11.1,10.8c7.6,0,11.1-5.1,11.1-10.8
			C258.3,305.8,254.9,300.8,247.3,300.8z"/>
		<path d="M-6.5,300.8c-7.6,0-11.1,5-11.1,10.7c0,5.7,3.5,10.8,11.1,10.8c7.6,0,11.1-5.1,11.1-10.8C4.6,305.8,1.1,300.8-6.5,300.8z"
			/>
		<path d="M-131.6,288.2v46.6h599.8v-46.6H-131.6z M-100.6,313.4h-13.8v11h-5v-25.7h19.2c4.7,0,10,1.9,10,7.5
			C-90.1,311.1-95.6,313.4-100.6,313.4z M-45.5,324.3l-10.3-10.9h-9.9v10.9h-5.1v-25.7h17.4c6.1,0,12.4,1.6,12.4,7.5
			c0,3.3-2.3,6.5-9,7.1l10.6,11.1L-45.5,324.3L-45.5,324.3z M-6.5,325c-9.6,0-15.5-5.5-15.5-13.6c0-8,5.9-13.4,15.5-13.4
			C3.1,298,9,303.5,9,311.5C9,319.5,3.1,325-6.5,325z M51.3,301.6H31.6v7.6h18.2v3H31.6v12.1h-5.1v-25.7h24.7V301.6z M100.7,324.3
			H73.1v-25.7h27.1v3.1h-22v7.9h19.1v3.1H78.2v8.8h22.5V324.3z M127.7,324.7c-2.7,0-5.4-0.5-7.9-1l0.6-3.4c1.9,0.6,5.2,1.2,8,1.2
			c3.1,0,7.5-1.1,7.5-4.2c0-5.7-16.5-4.1-16.5-12c0-4.5,5.4-7,12.3-7c2.5,0,5.6,0.3,8.2,0.9l-0.7,3.4c-2.9-0.7-4.4-1.1-7.2-1.1
			c-3.1,0-6.8,0.8-6.8,3.4c0,4.9,16.5,3.8,16.5,12.2C141.7,322.6,135.4,324.7,127.7,324.7z M169.9,324.7c-2.7,0-5.3-0.5-7.9-1
			l0.5-3.4c1.9,0.6,5.2,1.2,8,1.2c3.2,0,7.6-1.1,7.6-4.2c0-5.7-16.6-4.1-16.6-12c0-4.5,5.4-7,12.3-7c2.6,0,5.6,0.3,8.3,0.9l-0.7,3.4
			c-2.9-0.7-4.4-1.1-7.3-1.1c-3,0-6.7,0.8-6.7,3.4c0,4.9,16.5,3.8,16.5,12.2C184,322.6,177.6,324.7,169.9,324.7z M210.8,324.3h-5.1
			v-25.7h5.1V324.3z M247.3,325c-9.6,0-15.5-5.5-15.5-13.6c0-8,5.9-13.4,15.5-13.4c9.6,0,15.5,5.5,15.5,13.4
			C262.8,319.5,256.9,325,247.3,325z M310.8,324.3h-5.2l-20.4-20.2h-0.1v20.2h-4.8v-25.7h5.2l20.3,20.4h0.1v-20.4h4.8L310.8,324.3
			L310.8,324.3L310.8,324.3z M363.3,324.3h-5.2l-20.4-20.2h-0.2v20.2h-4.7v-25.7h5.1l20.4,20.4h0.1v-20.4h4.8L363.3,324.3
			L363.3,324.3z M413,324.3h-27.6v-25.7h27.1v3.1h-22v7.9h19.1v3.1h-19.1v8.8H413L413,324.3L413,324.3z M457.3,324.3h-24.4v-25.7
			h5.1v22.8h19.2L457.3,324.3L457.3,324.3z"/>
	</g>
</g>
</svg>
